<svg data-bx-workspace="master" xmlns="http://www.w3.org/2000/svg" viewBox="0 0 102 102" width="100px" height="100px"><defs><linearGradient id="color-0" data-bx-pinned="true"><bx-title>River one</bx-title><stop style="stop-color: rgb(138, 181, 224)"></stop></linearGradient><linearGradient id="color-1" data-bx-pinned="true"><bx-title>River two</bx-title><stop style="stop-color: rgb(69, 130, 195);"></stop></linearGradient><linearGradient id="color-2" data-bx-pinned="true"><bx-title>River three</bx-title><stop style="stop-color: rgb(34, 94, 174);"></stop></linearGradient><linearGradient id="color-3" data-bx-pinned="true"><bx-title>Hill one</bx-title><stop style="stop-color: rgb(5, 104, 57)"></stop></linearGradient><linearGradient id="color-4" data-bx-pinned="true"><bx-title>Hill two</bx-title><stop style="stop-color: rgb(11, 148, 68);"></stop></linearGradient><linearGradient id="color-5" data-bx-pinned="true"><bx-title>Hill three</bx-title><stop style="stop-color: rgb(58, 181, 74);"></stop></linearGradient><linearGradient id="color-6" data-bx-pinned="true"><bx-title>Hill four</bx-title><stop style="stop-color: rgb(140, 198, 62);"></stop></linearGradient><linearGradient id="color-7" data-bx-pinned="true"><bx-title>Sun</bx-title><stop style="stop-color: rgb(247, 148, 29);"></stop></linearGradient><linearGradient id="gradient-2" data-bx-pinned="true"><stop offset="0.312" style="stop-color: rgb(180, 220, 255);"></stop><stop offset="1" style="stop-color: rgb(78, 176, 231);"></stop></linearGradient><radialGradient id="gradient-2-0" href="#gradient-2" gradientUnits="userSpaceOnUse" cx="50" cy="50" r="50" gradientTransform="matrix(0.983938, 0, 0, 0.983938, 0.436036, 0.783359)"></radialGradient><linearGradient id="color-8" data-bx-pinned="true"><bx-title>ray</bx-title><stop style="stop-color: rgb(252, 180, 36);"></stop></linearGradient></defs><circle style="fill: url(&quot;#gradient-2-0&quot;);" cx="49.632" cy="49.98" r="49.197" transform="matrix(1, 0, 0, 0.998216, 1, 0.999975)"></circle><path d="M 19.633 12.694 C 17.5 15.356 15.637 16.814 13.315 19.131 C 13.044 19.401 12.336 20.517 12.395 20.576 C 13.547 21.726 14.468 22.026 15.695 23.251 C 16.195 23.751 16.367 25.684 16.822 26.134 C 19.227 28.531 18.109 32.771 19.552 35.599 C 21.399 39.22 24.185 38.58 26.54 39.513 C 28.274 40.199 29.99 40.11 31.148 41.264 C 31.285 41.402 31.663 41.243 31.742 41.165 C 32.638 40.271 30 39.593 29.722 39.404 C 27.909 38.175 26.266 35.088 25.774 34.368 C 24.87 33.049 25.161 32.48 24.478 30.836 C 22.63 26.389 24.377 21.533 22.922 19.282 C 22.667 18.884 20.072 12.945 20.072 12.804" style="fill: url(&quot;#color-8&quot;);"></path><path d="M 64.245 41.652 C 64.847 42.853 65.049 45.273 65.86 46.082 C 65.864 46.085 69.886 42.932 70.567 42.592 C 72.989 41.383 76.553 40.191 78.528 38.221 C 78.879 37.872 84.204 37.542 84.689 38.027 C 85.203 38.542 86.728 38.049 87.243 38.563 C 88.508 39.825 92.097 41.965 94.371 41.965 C 95.072 41.965 97.816 42.51 98.407 41.92 C 99.234 41.095 97.925 36.874 97.331 36.282 C 96.434 35.386 96.362 32.923 95.464 32.029 C 95.08 31.647 90.75 35.084 88.722 33.06 C 88.163 32.501 86.324 33.216 85.765 32.657 C 80.091 26.993 70.138 35.77 67.473 38.43 C 66.838 39.063 63.573 41.401 63.573 42.188" style="fill: url(&quot;#color-8&quot;);"></path><path d="M 27.563 93.899 C 28.787 94.308 30.996 95.411 31.908 96.32 C 32.804 97.215 35.779 97.158 36.657 98.036 C 37.922 99.296 41.743 98.273 43.023 99.547 C 43.433 99.959 44.864 99.067 45.245 99.446 C 46.22 100.419 51.666 99.444 53.329 99.547 C 56.401 99.738 59.938 98.944 61.918 98.641 C 62.808 98.504 67.543 98.022 68.89 96.623 C 71.311 94.11 75.956 93.703 78.386 91.278 C 81.254 88.414 82.315 89.898 84.246 86.042 C 84.475 85.585 84.928 85.184 84.593 84.851 C 84.218 84.476 83.41 85.166 83.323 85.254 C 83.036 85.54 83.154 84.899 82.751 84.909 C 82.373 84.918 81.85 84.442 81.831 84.621 C 81.778 85.138 81.738 85.014 81.047 85.014 C 79.366 85.014 76.385 83.631 75.394 84.621 C 74.993 85.019 71.482 84.222 71.082 84.622 C 70.481 85.223 67.289 83.95 66.655 84.581 C 65.727 85.51 59.918 86.436 59.032 87.323 C 56.806 89.543 56.951 85.999 54.715 88.229 C 53.678 89.263 53.938 88.014 52.843 89.107 C 52.523 89.426 47.764 90.674 47.446 90.993 C 46.535 91.901 44.406 91.245 43.511 92.14 C 42.787 92.861 41.374 91.766 40.65 92.488 C 40.099 93.041 36.807 92.165 36.268 92.704 C 35.914 93.057 31.272 92.554 30.918 92.905 C 29.722 94.099 29.07 93.798 27.463 93.798" style="fill: url(&quot;#color-2&quot;);"></path><path d="M 5.377 30.538 C 5.082 31.715 4.563 36.056 3.732 36.885 C 3.581 37.038 3.173 37.615 3.333 37.933 C 3.941 39.146 7.904 39.807 8.709 40.778 C 10.315 42.712 12.713 40.816 15.763 38.876 C 16.759 38.242 14.931 36.014 14.479 35.791 C 12.083 34.611 8.473 30.716 5.267 30.647" style="fill: url(&quot;#color-8&quot;);"></path><g transform="matrix(0.243659, -0.951593, 0.953295, 0.243224, -8.749377, 81.508263)"><path style="fill: none; stroke: rgb(255, 255, 255);" d="M 45.705 0.043 C 45.938 5.154 44.157 9.801 40.362 13.983 C 38.027 16.556 37.33 21.203 38.271 27.922 C 38.503 29.577 38.89 31.204 39.433 32.801"></path><path style="fill: none; stroke: rgb(255, 255, 255);" d="M 53.537 0.202 C 53.754 4.893 51.504 11.231 48.137 14.219 C 45.526 16.536 43.171 16.375 42.332 22.617 C 42.084 24.466 43.187 30.716 43.424 30.747"></path><line style="stroke: rgb(255, 255, 255);" x1="38.973" y1="32.404" x2="43.842" y2="30.625"></line></g><g transform="matrix(0.636553, -0.748952, 0.750291, 0.635416, -17.570644, 53.667389)"><path style="fill: none; stroke: rgb(255, 255, 255);" d="M 45.705 0.043 C 46.222 4.845 45.52 7.717 40.362 13.983 C 38.154 16.665 37.1 18.451 38.041 25.17 C 38.273 26.825 38.89 31.204 39.433 32.801"></path><path style="fill: none; stroke: rgb(255, 255, 255);" d="M 56.263 1.678 C 55.683 7.311 50.623 12.277 48.137 14.219 C 45.307 16.429 43.253 19.672 42.647 25.717 C 42.461 27.573 42.467 35.325 42.704 35.356"></path></g><path d="M 58.866 34.401 C 61.218 41.449 66.745 31.773 68.683 29.837 C 69.762 28.761 72.312 28.765 73.39 27.69 C 73.964 27.118 75.542 27.338 76.169 26.928 C 79.303 24.869 87.64 28.523 89.008 25.078 C 89.122 24.791 92.331 23.64 91.009 22.32 C 89.848 21.16 89.212 20.391 88.051 19.23 C 87.534 18.717 87.221 17.865 86.706 17.352 C 85.89 16.537 83.493 19.35 83.344 19.5 C 82.492 20.349 79.857 19.49 79.039 20.305 C 77.867 21.477 73.518 19.639 72.314 20.841 C 71.152 22.001 68.577 21.68 67.473 22.856 C 64.655 25.86 59.595 30.711 58.73 34.67" style="fill: url(&quot;#color-8&quot;);"></path><path d="M 50.526 32.389 C 51.369 32.389 55.005 33.157 55.234 32.923 C 56.403 31.747 56.203 24.999 55.639 26.883 C 55.082 28.735 57.073 22.631 58.461 21.245 C 61.367 18.346 68.772 19.682 71.643 16.815 C 73.296 15.163 73.917 12.529 75.409 11.041 C 75.509 10.941 76.145 9.362 75.946 9.162 C 74.373 7.593 71.55 7.325 69.895 5.671 C 69.781 5.56 67.829 5.048 67.473 5.403 C 65.813 7.059 66.307 10.864 64.65 12.518 C 62.549 14.615 57.343 13.349 55.639 15.874 C 51.971 21.307 50.533 26.736 50.526 32.923" style="fill: url(&quot;#color-8&quot;);"></path><path d="M 47.376 1.967 C 48.4 7.069 43.188 13.478 42.114 16.855 C 41.29 19.439 39.515 21.222 40.349 21.392 C 41.717 21.669 40.483 28.514 40.689 29.005 C 40.847 29.387 41.214 30.544 41.505 30.836 C 42.339 31.667 42.182 32.684 42.991 33.493 C 43.627 34.128 46.651 33.234 46.83 33.055 C 47.215 32.67 46.915 29.968 46.72 29.772 C 46.281 29.333 46.939 27.801 46.5 27.363 C 45.421 26.285 45.618 20.691 46.609 19.7 C 47.693 18.619 48.348 16.63 49.441 15.54 C 50.686 14.298 51.907 13.428 53.189 12.146 C 54.188 11.152 54.238 9.286 54.834 8.098 C 55.188 7.392 57.69 3.503 56.699 2.513 C 55.7 1.519 49.085 2.185 47.487 2.185" style="fill: url(&quot;#color-8&quot;);"></path><path d="M 35.973 3.717 C 34.962 5.736 29.974 5.107 28.407 6.674 C 28.095 6.984 29.439 7.815 29.502 7.878 C 29.966 8.34 29.94 9.698 29.94 10.615 C 29.94 14.034 30.471 16.496 28.407 18.557 C 27.891 19.073 29.062 25.698 29.254 25.89 C 30.26 26.895 29.651 29.372 30.708 30.427 C 32.461 32.178 32.748 35.31 34.437 36.997 C 34.794 37.352 37.392 39.628 37.946 39.076 C 38.154 38.87 40.309 35.662 39.919 35.355 C 37.084 33.1 36.485 28.713 35.095 26.159 C 34.33 24.752 35.46 21.27 34.327 20.137 C 34.124 19.935 35.148 17.91 35.245 17.814 C 36.328 16.732 36.099 15.087 37.179 14.007 C 39.632 11.558 36.082 6.049 36.082 4.266" style="fill: url(&quot;#color-8&quot;);"></path><circle style="fill: url(&quot;#color-7&quot;); stroke: rgb(255, 255, 255);" cx="49.632" cy="46.044" r="14.759" transform="matrix(1, 0, 0, 0.998216, 1, 0.999975)"></circle><path d="M 89.702 51.605 C 93.564 53.534 95.934 55.609 98.593 58.263 C 98.804 58.47 99.167 55.977 99.301 55.843 C 99.921 55.223 100.193 49.573 99.705 49.084 C 99.361 48.739 97.004 48.944 96.572 49.084 C 93.268 50.168 85.982 51.321 89.197 51.506" style="fill: url(&quot;#color-6&quot;);"></path><path style="fill: url(&quot;#color-6&quot;); stroke: rgb(255, 255, 255);" d="M 51.416 53.475 C 55.557 56.465 60.483 60.26 67.008 60.473 C 73.241 60.678 75.117 59.683 81.934 55.836 C 90.04 51.262 93.724 46.346 100.058 42.367" transform="matrix(-1, 0, 0, -1, 151.473999, 102.865318)"></path><path d="M 2.002 57.058 C 2.73 58.874 2.665 58.01 2.665 60.256 C 2.665 60.914 4.392 66.838 4.673 67.302 C 5.523 68.703 4.032 68.522 5.565 69.888 C 6.187 70.44 8.473 70.574 9.073 71.173 C 10.674 72.771 14.748 71.089 16.349 72.686 C 16.803 73.139 20.844 72.939 21.3 73.391 C 22.025 74.116 26.065 73.299 26.047 73.997 C 26.012 75.343 29.248 73.055 30.191 73.996 C 30.814 74.619 33.153 73.996 34.131 73.996 C 38.641 73.996 44.479 73.624 47.771 71.979 C 48.203 71.764 51.972 69.921 51.509 69.458 C 49.822 67.773 52.127 70.311 49.754 69.126 C 49.074 68.788 42.921 62.894 42.349 62.321 C 41.296 61.27 26.079 53.758 25.014 52.691 C 24.052 51.731 34.839 56.972 33.793 55.93 C 31.309 53.449 22.612 54.209 19.289 52.553 C 16.477 51.151 15.149 55.136 13.009 52.999 C 12.216 52.208 7.825 54.27 7.032 53.48 C 6.374 52.821 3.084 55.108 3.084 56.265" style="fill: url(&quot;#color-3&quot;);"></path><path d="M 1.297 52.024 C 1.297 53.259 1.173 55.491 1.908 56.198 C 2.751 57.006 5.481 55.097 5.744 54.586 C 6.102 53.905 8.488 54.044 9.133 53.427 C 11.666 50.998 14.388 50.105 17.91 48.416 C 19.375 47.713 24.685 47.7 25.746 48.716 C 28.645 51.496 34.04 51.763 37.132 54.731 C 40.589 58.044 44.413 61.313 47.894 64.654 C 48.551 65.283 48.669 66.702 49.358 67.361 C 50.445 68.403 51.61 69.422 52.805 70.569 C 53.6 71.332 54.141 69.185 54.267 69.066 C 55.749 67.646 57.804 66.776 59.282 65.356 C 60.269 64.408 57.366 62.914 56.88 62.449 C 53.852 59.544 50.316 56.551 47.266 53.629 C 46.025 52.438 44.113 51.202 42.879 50.019 C 39.885 47.146 36.315 45.426 33.268 42.501 C 31.855 41.145 28.938 41.054 27.522 39.694 C 26.464 38.68 24.051 38.747 22.166 38.747 C 21.783 38.747 17.551 38.334 17.307 38.568 C 16.218 39.613 14.031 39.92 12.934 40.974 C 10.48 43.329 8.785 43.739 6.209 46.21 C 4.666 47.689 3.743 49.479 2.239 50.923 C 2.044 51.107 1.79 53.471 1.576 53.471" style="fill: url(&quot;#color-5&quot;);"></path><path d="M 54.448 60.305 C 54.106 60.305 59.491 64.482 55.577 61.721 C 55.38 61.582 57.386 63.423 57.54 63.271 C 59.153 61.66 61.43 61.069 63.029 59.474 C 63.757 58.746 68.03 57.332 68.89 56.904 C 69.162 56.768 72.213 53.786 72.213 53.786 C 72.213 53.786 64.255 55.037 63.635 55.037 C 60.229 55.037 56.911 59.523 53.69 59.523" style="fill: url(&quot;#color-6&quot;);"></path><path d="M 54.768 68.632 C 63.221 68.632 64.939 67.688 72.985 69.512 C 76.785 70.372 91.44 70.162 93.542 70.064 C 93.988 70.042 95.597 70.231 95.866 69.964 C 97.828 68.004 97.144 63.24 99.099 61.289 C 99.221 61.167 99.683 58.947 99.404 58.665 C 99.247 58.511 96.437 57.894 95.966 58.364 C 94.564 59.766 91.074 59.294 89.095 60.28 C 86.626 61.513 83.216 60.09 80.61 61.389 C 79.75 61.819 78.466 61.308 77.88 61.894 C 77.332 62.443 75.96 61.996 75.455 62.5 C 74.541 63.412 72.229 62.594 71.314 63.508 C 70.174 64.644 67.26 63.722 66.161 64.82 C 65.07 65.908 57.383 65.307 56.351 66.337 C 56.161 66.526 52.143 68.84 52.382 69.079 C 52.77 69.467 61.44 68.286 61.994 68.286" style="fill: url(&quot;#color-4&quot;);"></path><path style="fill: url(&quot;#color-4&quot;); stroke: rgb(255, 255, 255);" d="M 99.251 50.417 C 93.684 55.679 92.481 58.2 84.102 63.279 C 81.608 64.79 71.803 69.655 67.472 69.434 C 63.2 69.217 60.867 67.964 60.168 67.264 C 60.104 67.2 53.413 63.095 51.862 61.021" transform="matrix(-1, 0, 0, -1, 151.112999, 119.858292)"></path><path d="M 5.74 71.307 C 7.365 72.931 8.471 76.976 9.955 78.454 C 11.721 80.22 12.242 81.327 14.024 83.108 C 15.422 84.503 20.307 82.418 21.703 83.812 C 22.192 84.302 24.045 83.427 24.534 83.913 C 25.088 84.47 27.008 83.662 27.563 84.218 C 27.866 84.519 28.979 84.017 29.281 84.319 C 30.527 85.561 34.461 83.913 35.749 83.913 C 40.369 83.913 46.741 83.229 49.186 80.787 C 49.742 80.234 51.157 80.535 51.711 79.982 C 53.017 78.679 52.819 80.297 54.076 79.043 C 54.983 78.136 57.399 78.733 58.309 77.826 C 58.797 77.338 63.377 77.659 63.865 77.171 C 64.124 76.914 74.092 77.192 74.432 77.023 C 75.825 76.326 84.057 76.965 85.804 76.965 C 92.77 76.965 82.574 76.672 88.996 76.672 C 90.417 76.672 91.37 77.196 92.253 76.317 C 92.69 75.88 94.619 72.853 95.059 72.416 C 95.511 71.965 96.042 71.281 95.562 70.802 C 94.473 69.716 90.325 70.198 88.39 70.198 C 87.819 70.198 86.186 70.421 85.864 70.097 C 85.375 69.608 83.373 70.479 82.885 69.992 C 81.585 68.694 81.249 70.754 79.494 69.877 C 79.109 69.684 75.241 69.478 74.937 69.175 C 73.879 68.119 71.62 70.37 70.467 69.218 C 69.487 68.239 64.665 69.597 63.726 68.661 C 63.26 68.197 58.899 68.399 58.582 68.715 C 57.908 69.389 55.315 68.67 54.658 69.324 C 52.667 71.311 49.375 70.111 47.469 72.013 C 46.137 73.342 42.14 72.19 40.8 73.527 C 40.176 74.148 37.786 73.005 37.162 73.628 C 36.607 74.181 34.687 73.376 34.131 73.931 C 33.797 74.263 32.091 74.031 31.504 74.031 C 29.496 74.031 25.223 74.822 24.127 73.729 C 23.558 73.159 21.307 73.938 20.692 73.325 C 19.563 72.198 15.573 73.256 14.429 72.114 C 13.806 71.492 11.516 72.536 10.892 71.913 C 10.201 71.221 5.74 70.233 5.74 71.509" style="fill: url(&quot;#color-0&quot;);"></path><path d="M 14.481 84.011 C 15.782 85.309 16.917 86.746 18.118 87.943 C 19.432 89.256 20.756 89.569 22.059 90.869 C 23.308 92.115 25.492 91.988 26.856 93.352 C 27.345 93.84 33.09 92.619 33.579 93.107 C 34.513 94.04 38.265 92.561 39.949 92.26 C 49.151 90.617 42.053 93.486 48.927 90.426 C 51.233 89.399 63.881 86.017 64.995 86.374 C 65.817 86.635 69.372 86.558 70.889 86.167 C 72.172 85.835 75.403 85.825 75.986 85.71 C 76.765 85.558 80.827 85.359 81.821 85.359 C 83.083 85.359 84.88 85.736 85.662 84.957 C 86.099 84.519 88.293 81.219 88.729 80.784 C 89.135 80.38 86.47 83.613 86.873 83.208 C 87.965 82.117 89.96 80.367 91.097 79.231 C 91.217 79.111 91.909 77.571 91.556 77.219 C 90.832 76.496 88.151 77.565 86.946 77.565 C 84.54 77.565 85.603 77.57 82.788 77.57 C 81.933 77.57 79.206 77.802 78.717 77.315 C 78.137 76.737 73.145 77.752 72.65 77.257 C 72.266 76.873 66.307 77.455 65.642 77.455 C 63.634 77.455 59.264 76.789 58.114 77.934 C 57.063 78.985 52.582 79.38 51.039 80.058 C 44.912 82.752 52.271 79.406 46.919 81.639 C 44.754 82.543 35.176 83.429 32.692 83.429 C 32.321 83.429 26.875 83.812 26.64 83.579 C 26.219 83.158 22.451 84.144 22.031 83.725 C 20.896 82.59 15.458 83.708 13.773 83.708" style="fill: url(&quot;#color-1&quot;);"></path><path style="fill: none; stroke: rgb(255, 255, 255);" d="M 5.526 70.534 C 5.526 70.457 31.736 78.347 50.632 70.534 C 59.79 66.748 74.273 70.303 95.625 70.534"></path><path style="fill: rgb(216, 216, 216); stroke: rgb(0, 0, 0);" d="M 61.461 63.892"></path><path style="fill: rgb(216, 216, 216); stroke: rgb(0, 0, 0);" d="M -57 40.059"></path><path style="fill: none; stroke: rgb(255, 255, 255);" d="M 13.57 78.894 C 13.573 78.815 37.804 83.894 50.596 80.11 C 66.226 75.486 73.214 80.881 92.389 81.112" transform="matrix(0.994548, -0.104276, 0.104276, 0.994548, -8.040552, 5.959957)"></path><path style="fill: rgb(216, 216, 216); stroke: rgb(0, 0, 0);" d="M 102 77.79"></path><path style="fill: rgb(216, 216, 216); stroke: rgb(0, 0, 0);" d="M -16.461 53.955"></path><path d="M 7.038 70.839 C 7.56 70.844 15.187 72.358 19.074 73.111 C 20.721 73.281 23.003 73.494 26.222 73.753 C 27.671 73.869 30.93 74.061 35.999 74.033 C 37.16 74.035 37.394 74.059 38.41 74.032 C 38.446 74.017 38.488 74.003 38.512 73.997 C 38.66 73.963 40.46 73.638 42.147 73.341 C 42.991 73.193 43.812 73.05 44.387 72.952 C 44.678 72.902 44.908 72.864 45.05 72.843 C 45.121 72.831 45.184 72.822 45.217 72.82 C 45.23 72.819 45.265 72.816 45.288 72.816 C 45.317 72.817 45.433 72.834 45.508 72.874 C 45.526 72.883 45.556 72.903 45.586 72.931 C 45.628 72.914 45.669 72.897 45.712 72.881 C 47.234 72.287 50.654 70.653 52.999 69.606 C 54.423 68.992 55.006 68.973 55.369 68.61 C 55.686 68.295 59.481 67.823 59.923 67.729 C 60.609 67.59 60.953 67.543 61.204 67.533 C 61.477 67.522 61.636 67.548 61.963 67.533 C 62.887 67.518 63.084 67.567 63.404 67.567 C 63.855 67.567 64.06 67.558 64.373 67.555 C 64.684 67.553 65.098 67.558 65.96 67.587 C 67.953 67.653 78.906 69.165 82.621 69.723 C 85.418 69.927 89.272 70.117 91.139 70.328 C 91.921 70.258 92.792 70.194 93.55 70.22 C 94.322 70.25 95.1 70.48 95.45 70.874 C 95.559 71.093 95.612 71.404 95.565 71.599 C 95.525 71.778 95.422 71.982 95.324 72.132 C 95.139 72.429 94.904 72.693 94.8 72.857 C 94.216 73.681 93.743 73.787 93.876 73.756 C 93.829 73.978 93.679 74.259 93.508 74.386 C 93.359 74.495 93.129 74.594 92.911 74.656 C 92.503 74.772 91.927 74.84 91.295 74.876 C 90.041 74.946 88.417 74.904 86.882 74.889 C 83.287 74.851 79.88 74.823 79.448 74.823 C 74.387 74.823 71.674 74.413 70.457 74.413 C 69.445 74.413 66.035 74.1 65.444 74.248 C 64.253 74.514 63.743 74.504 63.476 74.458 C 63.312 74.428 63.274 74.413 63.259 74.412 C 63.216 74.41 63.19 74.41 63.026 74.475 C 61.643 74.975 57.8 76.142 57.555 76.275 C 55.948 77.123 54.097 78.29 52.69 79.199 C 52.644 79.299 52.579 79.393 52.528 79.443 C 52.391 79.58 52.107 79.788 51.704 80.027 C 50.921 80.491 49.515 81.189 47.284 82.081 C 45.109 82.938 44.131 83.017 43.829 83.104 C 42.291 83.512 40.485 83.719 39.111 83.793 C 38.42 83.833 37.817 83.841 37.405 83.828 C 37.197 83.821 37.012 83.807 36.894 83.789 C 36.848 83.783 36.789 83.771 36.738 83.756 L 36.896 83.738 C 36.845 83.744 36.791 83.75 36.738 83.756 C 36.711 83.748 36.684 83.739 36.663 83.729 C 36.607 83.706 36.466 83.603 36.411 83.507 C 36.368 83.43 36.338 83.239 36.361 83.145 C 36.379 83.064 36.459 82.948 36.497 82.9 L 35.716 83.865 C 34.52 83.988 33.145 84.123 32.157 84.199 C 31.484 84.25 30.937 84.277 30.751 84.248 C 30.703 84.24 30.579 84.202 30.503 84.147 C 29.906 84.199 29.224 84.241 28.533 84.248 C 27.098 84.257 25.227 84.094 24.935 84.069 C 24.129 83.997 22.655 83.986 22.029 84 C 22.006 84.011 21.984 84.019 21.97 84.021 C 21.904 84.032 21.796 84.03 21.717 84.025 C 21.679 84.021 21.597 84.009 21.543 83.987 C 21.51 83.975 21.423 83.92 21.354 83.851 C 20.935 83.772 19.975 83.642 18.181 83.506 C 16.532 83.379 14.081 83.4 13.232 82.708 C 11.097 80.695 9.143 76.674 8.825 76.26 C 8.353 75.635 7.876 75.109 7.418 74.412 C 7.19 74.067 6.958 73.665 6.744 73.203 C 6.532 72.745 6.152 71.624 6.152 71.624 C 6.152 71.624 8.607 72.045 7.258 71.846 C 7.292 71.945 7.324 72.036 7.349 72.102 C 7.444 72.355 7.539 72.577 7.636 72.791 C 7.834 73.212 8.028 73.552 8.238 73.872 C 8.658 74.506 9.112 75.01 9.609 75.668 C 9.979 76.165 11.877 80.122 13.903 81.991 C 14.399 82.552 16.549 82.399 18.256 82.526 C 20.863 82.726 21.46 82.888 21.93 83.02 L 22.049 83.016 L 22.052 83.018 C 22.724 83.005 24.173 83.017 25.023 83.09 C 25.314 83.117 27.138 83.276 28.526 83.265 C 29.884 83.256 31.195 83.099 31.859 83.004 L 31.898 83.234 C 31.956 83.229 32.019 83.225 32.081 83.22 C 33.408 83.118 35.446 82.909 36.788 82.763 L 37.947 82.635 L 37.777 82.851 C 38.127 82.852 38.562 82.84 39.056 82.812 C 40.401 82.739 42.108 82.551 43.573 82.155 C 43.969 82.052 44.892 81.992 46.918 81.169 C 48.932 80.365 50.223 79.739 51.002 79.297 L 50.773 79.273 L 51.913 78.534 C 53.35 77.599 55.361 76.324 57.094 75.408 C 57.426 75.237 61.331 74.045 62.69 73.552 C 62.938 73.465 63.15 73.427 63.295 73.432 C 63.47 73.439 63.575 73.477 63.646 73.49 C 63.847 73.526 64.16 73.545 65.224 73.291 C 65.967 73.132 69.49 73.432 70.457 73.432 C 71.746 73.432 74.461 73.841 79.448 73.841 C 79.884 73.841 83.297 73.869 86.891 73.907 C 88.435 73.925 90.026 73.964 91.238 73.895 C 91.839 73.862 92.307 73.806 92.643 73.711 C 92.797 73.668 92.864 73.639 92.922 73.596 C 92.94 73.582 92.933 73.603 92.922 73.627 C 93.111 73.265 93.625 72.931 93.975 72.323 C 94.121 72.1 94.347 71.84 94.492 71.61 C 94.564 71.498 94.593 71.442 94.608 71.372 C 94.609 71.37 94.609 71.369 94.609 71.367 C 94.51 71.233 94.206 71.227 93.514 71.204 C 92.81 71.178 91.961 71.239 91.18 71.312 L 91.127 71.316 L 91.078 71.31 C 89.262 71.098 85.339 70.906 82.531 70.702 C 81.748 70.585 80.64 70.424 79.362 70.243 L 79.341 70.447 C 79.278 70.443 79.219 70.439 79.162 70.438 L 79.031 70.43 L 78.922 70.359 C 78.916 70.355 78.913 70.353 78.907 70.348 L 78.545 70.127 C 73.821 69.466 67.373 68.614 65.928 68.568 C 65.076 68.539 64.683 68.535 64.381 68.537 C 64.086 68.539 63.876 68.55 63.404 68.55 C 62.929 68.55 62.75 68.475 61.995 68.515 C 61.581 68.524 61.429 68.506 61.243 68.514 C 61.038 68.521 60.773 68.558 60.122 68.693 C 59.64 68.791 56.167 69.204 56.065 69.306 C 55.462 69.906 54.638 69.931 53.4 70.503 C 51.069 71.544 47.625 73.186 46.072 73.796 C 45.116 74.163 44.384 74.281 44.144 74.189 C 44.092 74.169 44.006 74.103 43.938 74.026 C 43.456 74.108 42.892 74.207 42.317 74.307 C 40.925 74.554 39.474 74.815 38.944 74.913 L 38.945 74.997 C 37.324 75.031 37.203 74.997 36.004 75.014 C 30.903 75.045 27.602 74.849 26.143 74.731 C 22.918 74.472 20.604 74.256 18.952 74.087 C 15.367 73.39 7.038 70.839 7.038 70.839 Z" style="fill: none;"></path><path d="M 7.038 70.839 C 7.56 70.844 15.187 72.358 19.074 73.111 C 20.721 73.281 23.003 73.494 26.222 73.753 C 27.671 73.869 30.93 74.061 35.999 74.033 C 37.16 74.035 37.394 74.059 38.41 74.032 C 38.446 74.017 38.488 74.003 38.512 73.997 C 38.66 73.963 40.46 73.638 42.147 73.341 C 42.991 73.193 43.812 73.05 44.387 72.952 C 44.678 72.902 44.908 72.864 45.05 72.843 C 45.121 72.831 45.184 72.822 45.217 72.82 C 45.23 72.819 45.265 72.816 45.288 72.816 C 45.317 72.817 45.433 72.834 45.508 72.874 C 45.526 72.883 45.556 72.903 45.586 72.931 C 45.628 72.914 45.669 72.897 45.712 72.881 C 47.234 72.287 50.654 70.653 52.999 69.606 C 54.423 68.992 55.006 68.973 55.369 68.61 C 55.686 68.295 59.481 67.823 59.923 67.729 C 60.609 67.59 60.953 67.543 61.204 67.533 C 61.477 67.522 61.636 67.548 61.963 67.533 C 62.887 67.518 63.084 67.567 63.404 67.567 C 63.855 67.567 64.06 67.558 64.373 67.555 C 64.684 67.553 65.098 67.558 65.96 67.587 C 67.953 67.653 78.906 69.165 82.621 69.723 C 85.418 69.927 89.272 70.117 91.139 70.328 C 91.921 70.258 92.792 70.194 93.55 70.22 C 94.322 70.25 95.1 70.48 95.45 70.874 C 95.559 71.093 95.612 71.404 95.565 71.599 C 95.525 71.778 95.422 71.982 95.324 72.132 C 95.139 72.429 94.904 72.693 94.8 72.857 C 94.216 73.681 93.743 73.787 93.876 73.756 C 93.829 73.978 93.679 74.259 93.508 74.386 C 93.359 74.495 93.129 74.594 92.911 74.656 C 92.503 74.772 91.927 74.84 91.295 74.876 C 90.041 74.946 88.417 74.904 86.882 74.889 C 83.287 74.851 79.88 74.823 79.448 74.823 C 74.387 74.823 71.674 74.413 70.457 74.413 C 69.445 74.413 66.035 74.1 65.444 74.248 C 64.253 74.514 63.743 74.504 63.476 74.458 C 63.312 74.428 63.274 74.413 63.259 74.412 C 63.216 74.41 63.19 74.41 63.026 74.475 C 61.643 74.975 57.8 76.142 57.555 76.275 C 55.948 77.123 54.097 78.29 52.69 79.199 C 52.644 79.299 52.579 79.393 52.528 79.443 C 52.391 79.58 52.107 79.788 51.704 80.027 C 50.921 80.491 49.515 81.189 47.284 82.081 C 45.109 82.938 44.131 83.017 43.829 83.104 C 42.291 83.512 40.485 83.719 39.111 83.793 C 38.42 83.833 37.817 83.841 37.405 83.828 C 37.197 83.821 37.012 83.807 36.894 83.789 C 36.848 83.783 36.789 83.771 36.738 83.756 L 36.896 83.738 C 36.845 83.744 36.791 83.75 36.738 83.756 C 36.711 83.748 36.684 83.739 36.663 83.729 C 36.607 83.706 36.466 83.603 36.411 83.507 C 36.368 83.43 36.338 83.239 36.361 83.145 C 36.379 83.064 36.459 82.948 36.497 82.9 L 35.716 83.865 C 34.52 83.988 33.145 84.123 32.157 84.199 C 31.484 84.25 30.937 84.277 30.751 84.248 C 30.703 84.24 30.579 84.202 30.503 84.147 C 29.906 84.199 29.224 84.241 28.533 84.248 C 27.098 84.257 25.227 84.094 24.935 84.069 C 24.129 83.997 22.655 83.986 22.029 84 C 22.006 84.011 21.984 84.019 21.97 84.021 C 21.904 84.032 21.796 84.03 21.717 84.025 C 21.679 84.021 21.597 84.009 21.543 83.987 C 21.51 83.975 21.423 83.92 21.354 83.851 C 20.935 83.772 19.975 83.642 18.181 83.506 C 16.532 83.379 14.081 83.4 13.232 82.708 C 11.097 80.695 9.143 76.674 8.825 76.26 C 8.353 75.635 7.876 75.109 7.418 74.412 C 7.19 74.067 6.958 73.665 6.744 73.203 C 6.532 72.745 6.152 71.624 6.152 71.624 C 6.152 71.624 8.607 72.045 7.258 71.846 C 7.292 71.945 7.324 72.036 7.349 72.102 C 7.444 72.355 7.539 72.577 7.636 72.791 C 7.834 73.212 8.028 73.552 8.238 73.872 C 8.658 74.506 9.112 75.01 9.609 75.668 C 9.979 76.165 11.877 80.122 13.903 81.991 C 14.399 82.552 16.549 82.399 18.256 82.526 C 20.863 82.726 21.46 82.888 21.93 83.02 L 22.049 83.016 L 22.052 83.018 C 22.724 83.005 24.173 83.017 25.023 83.09 C 25.314 83.117 27.138 83.276 28.526 83.265 C 29.884 83.256 31.195 83.099 31.859 83.004 L 31.898 83.234 C 31.956 83.229 32.019 83.225 32.081 83.22 C 33.408 83.118 35.446 82.909 36.788 82.763 L 37.947 82.635 L 37.777 82.851 C 38.127 82.852 38.562 82.84 39.056 82.812 C 40.401 82.739 42.108 82.551 43.573 82.155 C 43.969 82.052 44.892 81.992 46.918 81.169 C 48.932 80.365 50.223 79.739 51.002 79.297 L 50.773 79.273 L 51.913 78.534 C 53.35 77.599 55.361 76.324 57.094 75.408 C 57.426 75.237 61.331 74.045 62.69 73.552 C 62.938 73.465 63.15 73.427 63.295 73.432 C 63.47 73.439 63.575 73.477 63.646 73.49 C 63.847 73.526 64.16 73.545 65.224 73.291 C 65.967 73.132 69.49 73.432 70.457 73.432 C 71.746 73.432 74.461 73.841 79.448 73.841 C 79.884 73.841 83.297 73.869 86.891 73.907 C 88.435 73.925 90.026 73.964 91.238 73.895 C 91.839 73.862 92.307 73.806 92.643 73.711 C 92.797 73.668 92.864 73.639 92.922 73.596 C 92.94 73.582 92.933 73.603 92.922 73.627 C 93.111 73.265 93.625 72.931 93.975 72.323 C 94.121 72.1 94.347 71.84 94.492 71.61 C 94.564 71.498 94.593 71.442 94.608 71.372 C 94.609 71.37 94.609 71.369 94.609 71.367 C 94.51 71.233 94.206 71.227 93.514 71.204 C 92.81 71.178 91.961 71.239 91.18 71.312 L 91.127 71.316 L 91.078 71.31 C 89.262 71.098 85.339 70.906 82.531 70.702 C 81.748 70.585 80.64 70.424 79.362 70.243 L 79.341 70.447 C 79.278 70.443 79.219 70.439 79.162 70.438 L 79.031 70.43 L 78.922 70.359 C 78.916 70.355 78.913 70.353 78.907 70.348 L 78.545 70.127 C 73.821 69.466 67.373 68.614 65.928 68.568 C 65.076 68.539 64.683 68.535 64.381 68.537 C 64.086 68.539 63.876 68.55 63.404 68.55 C 62.929 68.55 62.75 68.475 61.995 68.515 C 61.581 68.524 61.429 68.506 61.243 68.514 C 61.038 68.521 60.773 68.558 60.122 68.693 C 59.64 68.791 56.167 69.204 56.065 69.306 C 55.462 69.906 54.638 69.931 53.4 70.503 C 51.069 71.544 47.625 73.186 46.072 73.796 C 45.116 74.163 44.384 74.281 44.144 74.189 C 44.092 74.169 44.006 74.103 43.938 74.026 C 43.456 74.108 42.892 74.207 42.317 74.307 C 40.925 74.554 39.474 74.815 38.944 74.913 L 38.945 74.997 C 37.324 75.031 37.203 74.997 36.004 75.014 C 30.903 75.045 27.602 74.849 26.143 74.731 C 22.918 74.472 20.604 74.256 18.952 74.087 C 15.367 73.39 7.038 70.839 7.038 70.839 Z" style="fill: none;"></path><path style="fill: rgb(5, 104, 57); stroke: rgb(255, 255, 255);" d="M 2.083 56.851 C 8.912 52.549 15.231 46.998 21.766 46.611 C 26.309 46.34 31.371 50.272 33.989 52.11 C 42.784 58.295 45.769 63.356 51.61 69.762"></path><g transform="matrix(0.983081, -0.040984, 0.041057, 0.981327, 2.366994, 3.209556)"><path style="fill: none; stroke: rgb(255, 255, 255);" d="M 45.705 0.043 C 45.938 5.154 44.157 9.801 40.362 13.983 C 38.027 16.556 37.33 21.203 38.271 27.922 C 38.503 29.577 39.518 31.551 40.061 33.148"></path><path style="fill: none; stroke: rgb(255, 255, 255);" d="M 54.933 1.385 C 55.15 6.076 51.504 11.231 48.137 14.219 C 45.526 16.536 44.046 18.5 43.274 23.138 C 42.968 24.978 44.103 31.879 44.34 31.91"></path></g><g transform="matrix(0.888573, -0.421826, 0.42258, 0.886986, -12.00924, 26.123724)"><path style="fill: none; stroke: rgb(255, 255, 255);" d="M 45.705 0.043 C 45.778 5.078 44.656 6.306 41.085 10.595 C 38.862 13.265 37.236 20.799 37.546 27.577 C 37.66 30.063 39.367 32.474 39.951 33.58"></path><path style="fill: none; stroke: rgb(255, 255, 255);" d="M 53.475 0.705 C 53.206 5.595 52.343 9.387 49.018 11.617 C 46.291 13.446 44.158 15.613 42.774 23.183 C 42.362 25.437 43.365 32.585 43.778 32.245"></path></g><g transform="matrix(0.887545, 0.423971, -0.424729, 0.885961, 28.851149, -14.358715)"><path style="fill: none; stroke: rgb(255, 255, 255);" d="M 43.684 0.654 C 44.783 6.217 45.709 9.482 40.456 12.692 C 37.728 14.359 36.271 17.238 37.32 24.819 C 37.549 26.474 39.822 31.292 40.365 32.889"></path><path style="fill: none; stroke: rgb(255, 255, 255);" d="M 53.537 0.202 C 53.754 4.893 53.918 9.87 50.46 12.752 C 47.575 15.156 42.89 15.892 42.635 21.761 C 42.554 23.625 44.825 31.909 45.062 31.94"></path></g><g transform="matrix(0.626311, 0.757504, -0.758859, 0.625193, 57.886028, -17.781364)"><path style="fill: none; stroke: rgb(255, 255, 255);" d="M 45.705 0.043 C 45.938 5.154 44.458 8.176 40.663 12.358 C 38.328 14.931 38.206 19.638 39.147 26.357 C 39.379 28.012 40.865 31.585 41.408 33.182"></path><path style="fill: none; stroke: rgb(255, 255, 255);" d="M 54.36 0.465 C 54.577 5.156 52.498 8.514 49.131 11.502 C 46.52 13.819 45.577 16.487 44.738 22.729 C 44.49 24.578 45.86 32.615 46.097 32.646"></path></g><g transform="matrix(0.41732, 1.05997, -0.864004, 0.338955, 77.185097, -15.002745)" style=""><path style="fill: none; stroke: rgb(255, 255, 255);" d="M 44.316 -0.263 C 44.412 4.661 44.575 5.821 41.168 10.534 C 39.133 13.35 37.643 16.968 38.584 23.687 C 38.816 25.342 41.471 33.364 42.014 34.961"></path><path style="fill: none; stroke: rgb(255, 255, 255);" d="M 53.537 0.202 C 53.771 4.829 50.996 6.915 47.659 11.064 C 45.133 14.204 43.885 15.855 44.311 22.475 C 44.589 26.785 46.322 36.022 46.585 36.048"></path></g><path style="fill: none; stroke: rgb(255, 255, 255);" d="M 1.59 52.408 C 6.409 47.002 11.197 38.527 20.135 38.527 C 27.405 38.527 31.438 41.221 38.941 47.061 C 48.671 54.636 51.541 57.372 58.017 63.836"></path><path style="fill: none; stroke: rgb(255, 255, 255);" d="M 25.811 90.309 C 25.815 90.232 39.624 92.855 50.557 89.621 C 67.077 84.735 66.857 88.378 86.03 88.609" transform="matrix(0.994548, -0.104276, 0.104276, 0.994548, -8.992787, 6.317254)"></path><circle style="paint-order: fill; fill: none; stroke: rgb(255, 255, 255);" cx="49.632" cy="49.98" r="49.197" data-bx-origin="0.46981 0.46981" transform="matrix(1, 0, 0, 0.998216, 1, 0.999975)"></circle></svg>